<svg width="313" height="32" viewBox="0 0 313 32" fill="none" xmlns="http://www.w3.org/2000/svg">
<g clip-path="url(#clip0_6686_470)">
<path d="M9.95117 15.2637H20.372V31.3093H9.95117V15.2637Z" fill="#DA352B"/>
<path d="M0 31.3093H9.95105V26.7933H4.56487V8.41054H25.7569V26.7933H20.3719V31.3093H30.3264V3.89337H0V31.3093Z" fill="#999999"/>
<path d="M126.718 14.1404C123.661 14.1404 121.517 12.3706 121.517 9.12575C121.517 6.1124 123.603 3.75696 127.071 3.75696C128.083 3.75696 129.057 3.89565 130.052 4.20741L129.836 5.53013C128.902 5.17824 127.965 4.96505 127.011 4.96505C124.926 4.96505 123.076 6.28891 123.076 8.96987C123.076 11.4778 124.633 12.8761 126.935 12.8761C127.597 12.8761 128.259 12.7592 128.784 12.6045V8.85296H130.264V13.5409C129.173 13.926 128.022 14.1404 126.718 14.1404Z" fill="#999999"/>
<path d="M134.037 14.0062V3.89789H139.553V5.04409H135.517V8.23052H139.376V9.35838H135.517V12.821H139.553V14.0062H134.037Z" fill="#999999"/>
<path d="M145.681 14.0453C145.039 14.0453 144.007 14.0246 142.935 14.0063V3.89795C143.715 3.89795 144.805 3.85669 146.15 3.85669C148.583 3.85669 149.558 4.8493 149.558 6.28778C149.558 7.35603 148.876 8.2111 147.726 8.63978V8.65926C149.11 8.93206 149.772 9.86621 149.772 10.9757C149.773 12.1586 149.072 14.0453 145.681 14.0453ZM145.837 4.96506C145.349 4.96506 144.845 4.96506 144.414 4.98684V8.25236C144.803 8.27299 145.193 8.27299 145.331 8.27299C147.008 8.27299 148.02 7.69072 148.02 6.48378C148.022 5.60808 147.535 4.96506 145.837 4.96506ZM145.372 9.30113C145.177 9.30113 144.689 9.30113 144.415 9.32177V12.8406C144.709 12.8991 145.138 12.9357 145.76 12.9357C147.475 12.9357 148.237 12.1391 148.237 11.0319C148.237 9.68969 147.008 9.30113 145.372 9.30113Z" fill="#999999"/>
<path d="M159.313 14.0063L158.455 11.7494H153.72L152.843 14.0063H151.363L155.36 3.89793H157.013L160.948 14.0063H159.313ZM154.383 2.16487C153.858 2.16487 153.447 1.75683 153.447 1.23187C153.447 0.725247 153.856 0.3172 154.383 0.3172C154.91 0.3172 155.318 0.725247 155.318 1.23187C155.318 1.75683 154.91 2.16487 154.383 2.16487ZM156.701 7.16115C156.469 6.56054 156.254 5.91753 156.099 5.43269H156.079C155.942 5.93701 155.747 6.5594 155.495 7.16115L154.13 10.6422H158.046L156.701 7.16115ZM158.044 2.16487C157.517 2.16487 157.11 1.75683 157.11 1.23187C157.11 0.725247 157.517 0.3172 158.044 0.3172C158.552 0.3172 158.98 0.725247 158.98 1.23187C158.98 1.75683 158.552 2.16487 158.044 2.16487Z" fill="#999999"/>
<path d="M167.212 14.1598C164.486 14.1598 163.023 12.8761 163.023 10.5424V3.89563H164.504V10.3292C164.504 12.1173 165.556 12.9323 167.329 12.9323C169.393 12.9323 170.131 11.7654 170.131 10.0954V3.89563H171.593V10.1745C171.596 12.3145 170.333 14.1598 167.212 14.1598Z" fill="#999999"/>
<path d="M178.253 14.0453C177.126 14.0453 176.288 14.0063 175.509 14.0063V3.89795C176.346 3.89795 177.669 3.85669 178.76 3.85669C182.132 3.85669 184.216 5.33414 184.216 8.83578C184.217 12.3924 181.684 14.0453 178.253 14.0453ZM178.528 5.02352C178.061 5.02352 177.475 5.04415 176.986 5.08083V12.7821C177.336 12.7993 177.981 12.8394 178.426 12.8394C180.924 12.8394 182.656 11.6142 182.656 8.93206C182.655 6.34623 181.274 5.02352 178.528 5.02352Z" fill="#999999"/>
<path d="M187.093 14.0063V3.89795H192.608V5.04415H188.576V8.23058H192.429V9.35844H188.576V12.8211H192.608V14.0063H187.093Z" fill="#999999"/>
<path d="M199.848 14.0063H198.194L194.198 3.89794H195.851L198.148 9.90516C198.48 10.7602 198.774 11.613 199.005 12.4509H199.028C199.301 11.6141 199.593 10.7774 199.906 9.98196L202.36 3.89679H203.904L199.848 14.0063Z" fill="#999999"/>
<path d="M205.977 14.0063V3.89795H211.491V5.04415H207.46V8.23058H211.316V9.35844H207.46V12.8211H211.491V14.0063H205.977Z" fill="#999999"/>
<path d="M219.979 14.0063L216.414 9.51547H216.354V14.0063H214.875V3.89795C215.48 3.87617 216.454 3.85669 217.64 3.85669C219.962 3.85669 221.245 4.77135 221.245 6.462C221.245 8.25007 219.863 9.28165 217.993 9.37678C218.264 9.64958 218.577 10.0393 218.906 10.4462L221.849 14.004H219.98L219.979 14.0063ZM217.445 4.9834C216.958 4.9834 216.647 5.00403 216.354 5.04071V8.44263C216.666 8.46212 217.095 8.48275 217.501 8.48275C218.846 8.48275 219.705 7.76293 219.705 6.63851C219.705 5.53014 218.83 4.9834 217.445 4.9834Z" fill="#999999"/>
<path d="M226.327 14.1599C225.527 14.1599 224.629 14.0418 224.066 13.9066L224.124 12.4864C224.746 12.7398 225.602 12.9151 226.519 12.9151C227.647 12.9151 228.877 12.4291 228.877 11.1076C228.877 8.91031 223.849 9.94074 223.849 6.71419C223.849 4.90549 225.313 3.73981 227.785 3.73981C228.411 3.73981 229.248 3.81546 229.854 3.93237L229.774 5.23789C229.21 5.07971 228.334 4.94446 227.71 4.94446C226.132 4.94446 225.391 5.58633 225.391 6.53997C225.391 8.7166 230.456 7.68731 230.456 10.9517C230.456 12.9552 228.585 14.1599 226.327 14.1599Z" fill="#999999"/>
<path d="M233.625 14.0063V3.89795H235.108V14.0063H233.625Z" fill="#999999"/>
<path d="M242.995 14.1404C239.8 14.1404 238.105 12.2755 238.105 9.16472C238.105 6.24765 239.702 3.77759 243.403 3.77759C244.162 3.77759 245.02 3.87616 245.738 4.06987L245.605 5.41207C244.787 5.15876 243.986 5.02351 243.209 5.02351C240.811 5.02351 239.684 6.77375 239.684 9.00998C239.684 11.4789 240.951 12.8394 243.345 12.8394C244.167 12.8394 245.043 12.6434 245.723 12.3133L245.841 13.6154C245.022 13.9467 244.066 14.1404 242.995 14.1404Z" fill="#999999"/>
<path d="M255.672 14.0063V9.41804H250.217V14.0063H248.736V3.89795H250.217V8.15493H255.672V3.89795H257.15V14.0063H255.672Z" fill="#999999"/>
<path d="M261.159 14.0062V3.89789H266.672V5.04409H262.638V8.23052H266.495V9.35838H262.638V12.821H266.672V14.0062H261.159Z" fill="#999999"/>
<path d="M275.163 14.0063L271.597 9.51547H271.539V14.0063H270.058V3.89795C270.663 3.87617 271.635 3.85669 272.824 3.85669C275.146 3.85669 276.429 4.77135 276.429 6.462C276.429 8.25007 275.048 9.28165 273.176 9.37678C273.448 9.64958 273.759 10.0393 274.093 10.4462L277.036 14.004H275.163V14.0063ZM272.627 4.9834C272.14 4.9834 271.831 5.00403 271.536 5.04071V8.44263C271.848 8.46212 272.279 8.48275 272.685 8.48275C274.029 8.48275 274.886 7.76293 274.886 6.63851C274.886 5.53014 274.014 4.9834 272.627 4.9834Z" fill="#999999"/>
<path d="M284.002 14.1598C281.273 14.1598 279.814 12.8761 279.814 10.5424V3.89563H281.292V10.3292C281.292 12.1173 282.345 12.9323 284.119 12.9323C286.186 12.9323 286.923 11.7654 286.923 10.0954V3.89563H288.383V10.1745C288.385 12.3145 287.121 14.1598 284.002 14.1598Z" fill="#999999"/>
<path d="M298.975 14.0062L294.827 7.68722C294.377 7.02701 293.968 6.28657 293.655 5.64584H293.635C293.672 6.32668 293.712 7.10266 293.712 8.29012L293.734 14.0062H292.291V3.89789H294.221L298.312 10.1378C298.743 10.7797 299.169 11.4995 299.542 12.1987H299.561C299.523 11.5006 299.485 10.3143 299.485 8.64201L299.463 3.89903H300.923V14.0062H298.975Z" fill="#999999"/>
<path d="M309.023 14.1404C305.965 14.1404 303.824 12.3706 303.824 9.12575C303.824 6.1124 305.907 3.75696 309.373 3.75696C310.388 3.75696 311.364 3.89565 312.358 4.20741L312.143 5.53013C311.207 5.17824 310.274 4.96505 309.317 4.96505C307.232 4.96505 305.381 6.28891 305.381 8.96987C305.381 11.4778 306.937 12.8761 309.239 12.8761C309.9 12.8761 310.563 12.7592 311.085 12.6045V8.85296H312.564V13.5409C311.476 13.926 310.328 14.1404 309.023 14.1404Z" fill="#999999"/>
<path d="M128.452 31.3093L124.069 26.313V31.3093H122.588V21.1998H124.069V25.9634L128.413 21.1998H130.265L125.703 26.0815L130.459 31.3104L128.452 31.3093Z" fill="#999999"/>
<path d="M139.201 31.3093L138.344 29.0524H133.611L132.733 31.3093H131.253L135.25 21.1998H136.905L140.838 31.3093H139.201ZM136.589 24.4631C136.356 23.8636 136.141 23.2229 135.988 22.7357H135.968C135.832 23.2401 135.637 23.8602 135.383 24.4631L134.018 27.9441H137.933L136.589 24.4631Z" fill="#999999"/>
<path d="M149.99 31.3093L145.839 24.9892C145.39 24.3278 144.981 23.5874 144.671 22.9478H144.65C144.69 23.6286 144.726 24.4046 144.726 25.5944L144.747 31.3093H143.304V21.1998H145.233L149.324 27.4397C149.754 28.0793 150.184 28.8014 150.554 29.5006H150.574C150.535 28.8049 150.495 27.6151 150.495 25.9451L150.474 21.201H151.938V31.307L149.99 31.3093Z" fill="#999999"/>
<path d="M158.69 22.4251V31.3093H157.21V22.4251H154.188V21.1998H161.746V22.4251H158.69Z" fill="#999999"/>
<path d="M167.43 31.4629C164.159 31.4629 162.696 29.3046 162.696 26.352C162.696 22.9868 165.012 21.0439 167.742 21.0439C170.722 21.0439 172.515 22.871 172.515 26.1755C172.519 29.5602 170.275 31.4629 167.43 31.4629ZM167.608 22.3071C165.833 22.3071 164.277 23.6664 164.277 26.1961C164.277 28.3521 165.114 30.1814 167.528 30.1814C169.46 30.1814 170.94 28.8599 170.94 26.3314C170.939 23.7077 169.67 22.3071 167.608 22.3071Z" fill="#999999"/>
<path d="M182.152 31.3093L178.005 24.9892C177.554 24.3278 177.148 23.5874 176.833 22.9478H176.815C176.852 23.6286 176.889 24.4046 176.889 25.5944L176.911 31.3093H175.468V21.1998H177.399L181.491 27.4397C181.922 28.0793 182.347 28.8014 182.719 29.5006H182.736C182.7 28.8049 182.661 27.6151 182.661 25.9451L182.642 21.201H184.102V31.307L182.152 31.3093Z" fill="#999999"/>
<path d="M191.458 31.3093V30.2193L196.112 23.6871C196.423 23.2412 196.679 22.8698 196.991 22.4629C196.462 22.4859 195.682 22.5031 194.63 22.5031H191.612V21.1998H198.702V22.3254L193.85 29.1327C193.615 29.4616 193.419 29.7722 193.226 30.0061C193.538 29.943 194.573 29.943 195.74 29.943H198.779V31.307L191.458 31.3093Z" fill="#999999"/>
<path d="M206.025 31.4629C203.295 31.4629 201.836 30.178 201.836 27.8478V21.1987H203.317V27.63C203.317 29.4204 204.369 30.2342 206.144 30.2342C208.208 30.2342 208.946 29.0662 208.946 27.3962V21.1952H210.408V27.4753C210.409 29.6164 209.142 31.4629 206.025 31.4629ZM204.212 19.5161C203.686 19.5161 203.278 19.1092 203.278 18.5808C203.278 18.0776 203.686 17.6672 204.212 17.6672C204.738 17.6672 205.148 18.0764 205.148 18.5808C205.148 19.108 204.738 19.5161 204.212 19.5161ZM207.874 19.5161C207.349 19.5161 206.939 19.1092 206.939 18.5808C206.939 18.0776 207.349 17.6672 207.874 17.6672C208.378 17.6672 208.811 18.0764 208.811 18.5808C208.812 19.108 208.379 19.5161 207.874 19.5161Z" fill="#999999"/>
<path d="M219.421 31.3093L215.855 26.8207H215.797V31.3093H214.318V21.1998C214.921 21.1792 215.897 21.1597 217.083 21.1597C219.402 21.1597 220.69 22.0778 220.69 23.765C220.69 25.5553 219.306 26.5858 217.437 26.6775C217.709 26.9526 218.021 27.34 218.35 27.7515L221.293 31.3081L219.421 31.3093ZM216.887 22.2898C216.4 22.2898 216.088 22.3093 215.797 22.3483V25.7479C216.11 25.772 216.539 25.7892 216.945 25.7892C218.291 25.7892 219.149 25.0682 219.149 23.9438C219.147 22.832 218.271 22.2898 216.887 22.2898Z" fill="#999999"/>
<path d="M224.151 31.3093V21.1998H225.632V31.3093H224.151Z" fill="#999999"/>
<path d="M233.519 31.4468C230.322 31.4468 228.627 29.5785 228.627 26.4677C228.627 23.5541 230.225 21.084 233.925 21.084C234.684 21.084 235.541 21.1792 236.262 21.3763L236.125 22.7174C235.307 22.4629 234.509 22.3288 233.73 22.3288C231.333 22.3288 230.206 24.0745 230.206 26.3153C230.206 28.7842 231.47 30.1447 233.868 30.1447C234.684 30.1447 235.561 29.9465 236.243 29.6175L236.362 30.9207C235.544 31.2474 234.59 31.4468 233.519 31.4468Z" fill="#999999"/>
<path d="M246.194 31.3093V26.7199H240.74V31.3093H239.26V21.1998H240.74V25.4602H246.194V21.1998H247.674V31.3093H246.194Z" fill="#999999"/>
<path d="M61.2066 9.57391C59.0045 8.72114 56.4786 8.19274 53.9136 8.19274C48.4941 8.19274 44.5817 11.6073 44.5817 17.7475C44.5817 23.5621 47.7601 26.9766 53.3427 26.9766C54.6487 26.9766 55.7871 26.8139 56.8473 26.4884V16.9337H62.145V30.0255C59.4146 31.1247 56.0329 31.7322 52.7327 31.7322C44.0131 31.7322 38.8359 26.611 38.8359 18.2357C38.8359 9.61518 44.7046 3.47614 54.2398 3.47614C56.9702 3.47614 59.6593 3.96212 62.0221 4.65443L61.2066 9.57391Z" fill="#999999"/>
<path d="M80.7996 31.3288H74.6886L65.1108 3.88306H70.8956L76.2359 19.9459C76.7665 21.491 77.3788 23.3226 77.8647 25.3124H77.9474C78.354 23.4429 78.8032 21.938 79.5762 19.6215L84.9969 3.88535H90.4163L80.7996 31.3288Z" fill="#999999"/>
<path d="M92.4492 31.3288V27.2632L102.35 11.1603C102.921 10.2261 103.492 9.41345 104.143 8.55953C103.164 8.6008 101.862 8.63977 99.1323 8.63977H92.7731V3.8819H110.541V8.10908L100.067 24.6189C99.6607 25.27 99.2931 25.8809 98.806 26.5308C99.4975 26.4517 101.371 26.4517 104.754 26.4517H110.703V31.3276L92.4492 31.3288Z" fill="#999999"/>
</g>
<defs>
<clipPath id="clip0_6686_470">
<rect width="312.842" height="32" fill="white"/>
</clipPath>
</defs>
</svg>
